<?xml version="1.0" encoding="UTF-8"?>
<svg version="1.1" xmlns="http://www.w3.org/2000/svg" width="261" height="220">
<path d="M0 0 C1.4540625 0.0309375 1.4540625 0.0309375 2.9375 0.0625 C3.4325 3.0325 3.4325 3.0325 3.9375 6.0625 C1.75 7.1875 1.75 7.1875 -1.0625 8.0625 C-2.74827711 7.44575228 -4.41698038 6.77977778 -6.0625 6.0625 C-8.30490782 6.34989925 -8.30490782 6.34989925 -10.0625 7.0625 C-9.44375 7.289375 -8.825 7.51625 -8.1875 7.75 C-5.44276425 9.44527796 -5.12786346 11.09195954 -4.0625 14.0625 C-1.41625716 13.92228195 1.22934578 13.77560224 3.875 13.625 C4.62974609 13.58568359 5.38449219 13.54636719 6.16210938 13.50585938 C9.85694187 13.62211976 9.85694187 13.62211976 12.9375 12.0625 C14.93708364 12.02169217 16.93795254 12.01995644 18.9375 12.0625 C19.5625 14.9375 19.5625 14.9375 19.9375 18.0625 C19.2775 18.7225 18.6175 19.3825 17.9375 20.0625 C16.26087342 19.78355162 14.59497602 19.43888031 12.9375 19.0625 C10.83426466 18.9965265 8.72914276 18.97687755 6.625 19 C5.55636719 19.00902344 4.48773438 19.01804687 3.38671875 19.02734375 C2.57847656 19.03894531 1.77023438 19.05054687 0.9375 19.0625 C1.42476562 20.17238281 1.42476562 20.17238281 1.921875 21.3046875 C2.8540537 23.8359112 3.12513392 25.53694153 3.1875 28.1875 C3.49940295 32.23654942 3.49940295 32.23654942 6.6875 33.9375 C7.76 34.30875 8.8325 34.68 9.9375 35.0625 C14.82638889 36.95138889 14.82638889 36.95138889 16.9375 39.0625 C16.5625 42 16.5625 42 15.9375 45.0625 C15.77654863 48.13922804 15.77654863 48.13922804 17 51.1875 C17.97514572 55.21810233 17.82246623 57.83136124 17.21875 61.8515625 C16.84398257 64.33223777 16.84398257 64.33223777 17.0625 67.9375 C16.9375 71.0625 16.9375 71.0625 15.84375 72.66015625 C13.14179272 74.64786663 10.59514305 74.99922382 7.3125 75.625 C6.06984375 75.86992188 4.8271875 76.11484375 3.546875 76.3671875 C2.35578125 76.59664063 1.1646875 76.82609375 -0.0625 77.0625 C-1.85579546 77.45088752 -3.64780968 77.8453248 -5.4375 78.25 C-6.63375 78.518125 -7.83 78.78625 -9.0625 79.0625 C-9.7225 84.6725 -10.3825 90.2825 -11.0625 96.0625 C-12.5475 96.5575 -12.5475 96.5575 -14.0625 97.0625 C-14.3925 95.4125 -14.7225 93.7625 -15.0625 92.0625 C-19.33331848 92.03308353 -23.60411034 92.01556285 -27.875 92 C-29.07060547 91.99162109 -30.26621094 91.98324219 -31.49804688 91.97460938 C-38.74757559 91.95485589 -45.85788651 92.24456935 -53.0625 93.0625 C-53.7225 92.0725 -54.3825 91.0825 -55.0625 90.0625 C-54.0725 88.4125 -53.0825 86.7625 -52.0625 85.0625 C-51.10960083 85.16099243 -51.10960083 85.16099243 -50.13745117 85.26147461 C-42.55461137 86.00280799 -34.98798559 86.36425204 -27.375 86.625 C-25.58932617 86.68977539 -25.58932617 86.68977539 -23.76757812 86.75585938 C-20.86596966 86.86073679 -17.96429365 86.96290196 -15.0625 87.0625 C-14.5984375 85.144375 -14.5984375 85.144375 -14.125 83.1875 C-13.58644756 80.96148325 -13.0888 79.11510001 -12.0625 77.0625 C-16.6825 77.3925 -21.3025 77.7225 -26.0625 78.0625 C-26.0625 76.0825 -26.0625 74.1025 -26.0625 72.0625 C-24.0710944 71.68116701 -22.06970923 71.34924418 -20.0625 71.0625 C-19.7325 71.3925 -19.4025 71.7225 -19.0625 72.0625 C-16.27955662 72.19186926 -13.53369949 72.25223635 -10.75 72.25 C-9.53497803 72.2509668 -9.53497803 72.2509668 -8.29541016 72.25195312 C-1.74132072 72.19479159 4.52775719 71.47012979 10.9375 70.0625 C10.62965623 67.10361327 10.31644426 64.14546833 10 61.1875 C9.91298828 60.34574219 9.82597656 59.50398438 9.73632812 58.63671875 C9.64931641 57.83105469 9.56230469 57.02539062 9.47265625 56.1953125 C9.394104 55.45168457 9.31555176 54.70805664 9.23461914 53.94189453 C9.02112653 51.97803684 9.02112653 51.97803684 7.9375 50.0625 C7.70673077 44.52403846 7.70673077 44.52403846 8.9375 42.0625 C8.23882812 41.73636719 7.54015625 41.41023438 6.8203125 41.07421875 C5.91023438 40.63722656 5.00015625 40.20023438 4.0625 39.75 C3.15757812 39.32074219 2.25265625 38.89148438 1.3203125 38.44921875 C-1.0625 37.0625 -1.0625 37.0625 -3.0625 34.0625 C-3.26579268 32.23286589 -3.42722196 30.39841632 -3.5625 28.5625 C-4.78663756 20.68211443 -9.03391996 16.03968211 -15.0625 11.0625 C-21.58073137 6.95162795 -28.49622542 6.03164513 -36.0625 7.0625 C-41.17135566 8.3283609 -46.33871299 9.70060649 -51.0625 12.0625 C-47.65927126 14.15679461 -45.02297946 14.39956208 -41.0625 14.0625 C-40.0725 13.4025 -39.0825 12.7425 -38.0625 12.0625 C-35.375 11.9375 -35.375 11.9375 -33.0625 12.0625 C-32.5675 13.5475 -32.5675 13.5475 -32.0625 15.0625 C-30.58418779 15.25662181 -29.10480684 15.44262131 -27.625 15.625 C-26.80128906 15.72941406 -25.97757813 15.83382812 -25.12890625 15.94140625 C-24.44699219 15.98136719 -23.76507813 16.02132812 -23.0625 16.0625 C-22.7325 15.7325 -22.4025 15.4025 -22.0625 15.0625 C-19.5625 14.9375 -19.5625 14.9375 -17.0625 15.0625 C-15.17712442 16.94787558 -16.0625 20.54629151 -16.0625 23.0625 C-15.92632428 26.30543584 -15.92632428 26.30543584 -15.0625 29.0625 C-13.11086882 30.49887698 -13.11086882 30.49887698 -11.0625 31.0625 C-11.3125 33.4375 -11.3125 33.4375 -12.0625 36.0625 C-12.660625 36.35125 -13.25875 36.64 -13.875 36.9375 C-17.22849228 38.66215317 -18.65404148 41.68924184 -20.0625 45.0625 C-20.1553125 46.6403125 -20.1553125 46.6403125 -20.25 48.25 C-21.0625 51.0625 -21.0625 51.0625 -22.90625 52.1484375 C-24.49872596 52.81196915 -26.09948927 53.45588215 -27.70703125 54.08203125 C-31.77633224 55.77588622 -34.93734165 57.93131771 -37.05859375 61.94921875 C-38.31715013 65.11066421 -39.06451588 68.07459525 -39.625 71.4375 C-40.0625 74.0625 -40.0625 74.0625 -42.0625 76.0625 C-41.4025 76.0625 -40.7425 76.0625 -40.0625 76.0625 C-39.375 77.875 -39.375 77.875 -39.0625 80.0625 C-40.1875 81.875 -40.1875 81.875 -42.0625 83.0625 C-44.75 82.75 -44.75 82.75 -47.0625 82.0625 C-47.145 81.27875 -47.2275 80.495 -47.3125 79.6875 C-47.77501366 76.97515367 -47.77501366 76.97515367 -49.8125 75.9375 C-50.555 75.64875 -51.2975 75.36 -52.0625 75.0625 C-52.866875 74.546875 -53.67125 74.03125 -54.5 73.5 C-56.97495812 71.91915348 -56.97495812 71.91915348 -59.75 71.625 C-60.513125 71.439375 -61.27625 71.25375 -62.0625 71.0625 C-62.51302734 70.12277344 -62.51302734 70.12277344 -62.97265625 69.1640625 C-64.84728318 65.54919051 -68.39294467 64.48275382 -72.0625 63.0625 C-75.37833451 62.2841223 -75.37833451 62.2841223 -78.0625 62.0625 C-78.3925 60.4125 -78.7225 58.7625 -79.0625 57.0625 C-78.4025 57.0625 -77.7425 57.0625 -77.0625 57.0625 C-78.0525 51.6175 -78.0525 51.6175 -79.0625 46.0625 C-80.0525 45.7325 -81.0425 45.4025 -82.0625 45.0625 C-82.5575 43.5775 -82.5575 43.5775 -83.0625 42.0625 C-81.0625 39.0625 -81.0625 39.0625 -79.10546875 38.11328125 C-75.47961979 36.24836085 -73.84899075 32.6150255 -72.0625 29.0625 C-71.876875 28.11375 -71.69125 27.165 -71.5 26.1875 C-71.355625 25.48625 -71.21125 24.785 -71.0625 24.0625 C-69.125 23 -69.125 23 -67.0625 22.0625 C-66.35855388 20.74846724 -65.69904342 19.4104743 -65.0625 18.0625 C-58.96861284 9.56799062 -50.67414204 5.60554385 -41.0625 2.0625 C-40.4025 1.7325 -39.7425 1.4025 -39.0625 1.0625 C-36.44781537 0.98792789 -33.85999427 0.97116024 -31.24609375 1 C-30.47443375 1.00378662 -29.70277374 1.00757324 -28.9077301 1.01147461 C-26.43843072 1.02371362 -23.96924675 1.04234876 -21.5 1.0625 C-18.24870122 1.08897689 -14.99745915 1.10902538 -11.74609375 1.125 C-10.99194687 1.13329834 -10.23779999 1.14159668 -9.46080017 1.15014648 C-7.66115 1.15870984 -5.8613805 1.11581991 -4.0625 1.0625 C-3.0625 0.0625 -3.0625 0.0625 0 0 Z M-59.6875 17.0625 C-60.91339844 18.17625 -60.91339844 18.17625 -62.1640625 19.3125 C-62.79054688 19.89 -63.41703125 20.4675 -64.0625 21.0625 C-63.0725 21.5575 -63.0725 21.5575 -62.0625 22.0625 C-56.86318173 19.73575569 -56.86318173 19.73575569 -53.625 15.3125 C-53.439375 14.57 -53.25375 13.8275 -53.0625 13.0625 C-56.17160487 13.0625 -57.442334 15.0097768 -59.6875 17.0625 Z M-36.0625 15.0625 C-35.0625 17.0625 -35.0625 17.0625 -35.0625 17.0625 Z M-51.0625 16.0625 C-50.0625 18.0625 -50.0625 18.0625 -50.0625 18.0625 Z M-49.0625 20.0625 C-49.22927282 23.64593976 -49.22927282 23.64593976 -49.0625 27.0625 C-47.91025972 26.13288578 -46.76590824 25.1934875 -45.625 24.25 C-44.98691406 23.72792969 -44.34882812 23.20585938 -43.69140625 22.66796875 C-41.8076725 21.05415589 -41.8076725 21.05415589 -41.0625 18.0625 C-45.55554582 17.63746554 -45.55554582 17.63746554 -49.0625 20.0625 Z M-33.0625 18.0625 C-32.94840407 19.52172693 -32.82084456 20.97990598 -32.6875 22.4375 C-32.61789063 23.24960938 -32.54828125 24.06171875 -32.4765625 24.8984375 C-32.23357412 27.26584191 -32.23357412 27.26584191 -30.0625 29.0625 C-27.7525 26.4225 -25.4425 23.7825 -23.0625 21.0625 C-26.06867269 18.05632731 -28.88631598 18.46664684 -33.0625 18.0625 Z M-20.0625 18.0625 C-19.0625 20.0625 -19.0625 20.0625 -19.0625 20.0625 Z M-58.1875 22.5625 C-58.91195312 23.0265625 -59.63640625 23.490625 -60.3828125 23.96875 C-60.93710938 24.3296875 -61.49140625 24.690625 -62.0625 25.0625 C-61.7325 25.7225 -61.4025 26.3825 -61.0625 27.0625 C-58.93673218 27.52901207 -58.93673218 27.52901207 -56.5 27.6875 C-55.67371094 27.76226562 -54.84742188 27.83703125 -53.99609375 27.9140625 C-53.35800781 27.96304688 -52.71992187 28.01203125 -52.0625 28.0625 C-52.0625 25.4225 -52.0625 22.7825 -52.0625 20.0625 C-54.73800292 20.0625 -55.95294641 21.12085252 -58.1875 22.5625 Z M-40.5 22.375 C-41.7684375 23.7053125 -41.7684375 23.7053125 -43.0625 25.0625 C-43.9596875 25.8978125 -43.9596875 25.8978125 -44.875 26.75 C-46.28613777 28.01468271 -46.28613777 28.01468271 -46.0625 30.0625 C-42.4325 30.3925 -38.8025 30.7225 -35.0625 31.0625 C-33.99010703 27.84532108 -34.12640515 27.00966388 -35 23.875 C-35.350625 22.616875 -35.70125 21.35875 -36.0625 20.0625 C-38.38066544 19.83307986 -38.38066544 19.83307986 -40.5 22.375 Z M-22.0625 23.0625 C-23.64705866 24.84973941 -23.64705866 24.84973941 -25.1875 27.0625 C-25.99574219 28.17625 -25.99574219 28.17625 -26.8203125 29.3125 C-27.23023438 29.89 -27.64015625 30.4675 -28.0625 31.0625 C-25.0925 31.0625 -22.1225 31.0625 -19.0625 31.0625 C-17.8547442 27.43923261 -18.51938872 26.42103631 -20.0625 23.0625 C-20.7225 23.0625 -21.3825 23.0625 -22.0625 23.0625 Z M-65.0625 29.0625 C-64.753125 30.67125 -64.44375 32.28 -64.125 33.9375 C-63.95097656 34.84242187 -63.77695313 35.74734375 -63.59765625 36.6796875 C-63.16286299 39.06206317 -63.16286299 39.06206317 -62.0625 41.0625 C-59.95883599 41.29152186 -59.95883599 41.29152186 -58.5546875 39.63671875 C-57.75417969 38.70279297 -57.75417969 38.70279297 -56.9375 37.75 C-56.39867187 37.13511719 -55.85984375 36.52023438 -55.3046875 35.88671875 C-53.78107878 34.01704952 -53.78107878 34.01704952 -54.0625 31.0625 C-57.6925 30.4025 -61.3225 29.7425 -65.0625 29.0625 Z M-51.0625 30.0625 C-51.0625 30.7225 -51.0625 31.3825 -51.0625 32.0625 C-50.4025 32.0625 -49.7425 32.0625 -49.0625 32.0625 C-49.0625 31.4025 -49.0625 30.7425 -49.0625 30.0625 C-49.7225 30.0625 -50.3825 30.0625 -51.0625 30.0625 Z M-69.0625 31.0625 C-71.99907015 34.71402843 -71.99907015 34.71402843 -73.0625 39.0625 C-73.7225 39.0625 -74.3825 39.0625 -75.0625 39.0625 C-75.0625 39.7225 -75.0625 40.3825 -75.0625 41.0625 C-71.26206554 42.79984147 -69.46535423 43.0625 -65.0625 43.0625 C-66.0525 39.1025 -67.0425 35.1425 -68.0625 31.0625 C-68.3925 31.0625 -68.7225 31.0625 -69.0625 31.0625 Z M-33.0625 32.0625 C-32.4025 32.7225 -31.7425 33.3825 -31.0625 34.0625 C-31.0625 33.4025 -31.0625 32.7425 -31.0625 32.0625 C-31.7225 32.0625 -32.3825 32.0625 -33.0625 32.0625 Z M-16.0625 32.0625 C-15.7325 32.7225 -15.4025 33.3825 -15.0625 34.0625 C-14.7325 33.4025 -14.4025 32.7425 -14.0625 32.0625 C-14.7225 32.0625 -15.3825 32.0625 -16.0625 32.0625 Z M-47.0625 33.0625 C-48.37875194 35.69500388 -47.81063658 36.86429056 -47.125 39.6875 C-46.93035156 40.50476563 -46.73570313 41.32203125 -46.53515625 42.1640625 C-46.37917969 42.79054688 -46.22320312 43.41703125 -46.0625 44.0625 C-42.28563283 42.30319008 -39.79581444 40.25136684 -37.0625 37.0625 C-37.0625 35.7425 -37.0625 34.4225 -37.0625 33.0625 C-40.3625 33.0625 -43.6625 33.0625 -47.0625 33.0625 Z M-28.0625 34.0625 C-28.3925 34.7225 -28.7225 35.3825 -29.0625 36.0625 C-28.29649418 38.08175867 -28.29649418 38.08175867 -27.125 40.1875 C-26.74472656 40.91195312 -26.36445313 41.63640625 -25.97265625 42.3828125 C-25.52212891 43.21425781 -25.52212891 43.21425781 -25.0625 44.0625 C-24.4025 44.0625 -23.7425 44.0625 -23.0625 44.0625 C-22.4025 42.969375 -21.7425 41.87625 -21.0625 40.75 C-20.69125 40.13511719 -20.32 39.52023438 -19.9375 38.88671875 C-18.84626001 36.94888074 -18.84626001 36.94888074 -19.0625 34.0625 C-22.0325 34.0625 -25.0025 34.0625 -28.0625 34.0625 Z M-52.0625 35.0625 C-54.3725 37.7025 -56.6825 40.3425 -59.0625 43.0625 C-58.7325 43.7225 -58.4025 44.3825 -58.0625 45.0625 C-55.93673218 45.52901207 -55.93673218 45.52901207 -53.5 45.6875 C-52.67371094 45.76226562 -51.84742188 45.83703125 -50.99609375 45.9140625 C-50.35800781 45.96304688 -49.71992187 46.01203125 -49.0625 46.0625 C-49.1760629 44.41583797 -49.30367381 42.77013918 -49.4375 41.125 C-49.50710937 40.20847656 -49.57671875 39.29195312 -49.6484375 38.34765625 C-49.78507812 37.59355469 -49.92171875 36.83945313 -50.0625 36.0625 C-50.7225 35.7325 -51.3825 35.4025 -52.0625 35.0625 Z M-36.0078125 37.9609375 C-36.72710937 38.77820313 -37.44640625 39.59546875 -38.1875 40.4375 C-38.91195312 41.24960938 -39.63640625 42.06171875 -40.3828125 42.8984375 C-42.26688352 44.86924914 -42.26688352 44.86924914 -42.0625 47.0625 C-37.4425 47.0625 -32.8225 47.0625 -28.0625 47.0625 C-29.06080569 40.99058373 -29.06080569 40.99058373 -32.0625 36.0625 C-34.27696503 35.82968947 -34.27696503 35.82968947 -36.0078125 37.9609375 Z M-79.0625 41.0625 C-78.0625 43.0625 -78.0625 43.0625 -78.0625 43.0625 Z M-63.0625 44.0625 C-62.0625 46.0625 -62.0625 46.0625 -62.0625 46.0625 Z M-76.0625 45.0625 C-75.4025 48.0325 -74.7425 51.0025 -74.0625 54.0625 C-73.0725 54.0625 -72.0825 54.0625 -71.0625 54.0625 C-69.60159212 52.5270122 -69.60159212 52.5270122 -68.375 50.5625 C-67.71951172 49.58796875 -67.71951172 49.58796875 -67.05078125 48.59375 C-66.72464844 48.0884375 -66.39851563 47.583125 -66.0625 47.0625 C-69.7066774 44.6330484 -71.77491272 44.90070425 -76.0625 45.0625 Z M-47.0625 47.0625 C-47.0625 47.7225 -47.0625 48.3825 -47.0625 49.0625 C-46.4025 49.0625 -45.7425 49.0625 -45.0625 49.0625 C-45.0625 48.4025 -45.0625 47.7425 -45.0625 47.0625 C-45.7225 47.0625 -46.3825 47.0625 -47.0625 47.0625 Z M-25.0625 47.0625 C-25.0625 47.7225 -25.0625 48.3825 -25.0625 49.0625 C-24.4025 48.7325 -23.7425 48.4025 -23.0625 48.0625 C-23.7225 47.7325 -24.3825 47.4025 -25.0625 47.0625 Z M-60.0625 48.0625 C-59.94779863 49.81320517 -59.82030972 51.56307536 -59.6875 53.3125 C-59.61789063 54.28703125 -59.54828125 55.2615625 -59.4765625 56.265625 C-59.07784751 58.95883189 -58.42742937 60.73213279 -57.0625 63.0625 C-55.85978941 61.32291859 -54.6757699 59.57040255 -53.5 57.8125 C-52.83871094 56.83796875 -52.17742187 55.8634375 -51.49609375 54.859375 C-49.62200433 51.95914294 -49.62200433 51.95914294 -51.0625 48.0625 C-54.0325 48.0625 -57.0025 48.0625 -60.0625 48.0625 Z M-42.0625 49.0625 C-42.3925 50.7125 -42.7225 52.3625 -43.0625 54.0625 C-41.22891665 56.39704661 -41.22891665 56.39704661 -39.0625 58.0625 C-35.20838356 55.60988045 -32.33525026 53.33525026 -29.0625 50.0625 C-33.3525 49.7325 -37.6425 49.4025 -42.0625 49.0625 Z M-65.0625 50.0625 C-68.91439151 53.77983141 -68.91439151 53.77983141 -70.375 58.6875 C-68.32001223 62.4060493 -64.88924826 63.50216301 -61.0625 65.0625 C-61.71599633 57.51211578 -61.71599633 57.51211578 -63.0625 50.0625 C-63.7225 50.0625 -64.3825 50.0625 -65.0625 50.0625 Z M-47.0625 52.0625 C-48.08051564 53.45151259 -49.05170433 54.87498578 -50 56.3125 C-50.52464844 57.10140625 -51.04929687 57.8903125 -51.58984375 58.703125 C-52.88639649 60.78036069 -54.01325786 62.85250206 -55.0625 65.0625 C-53.4114597 64.66696947 -51.7666485 64.24536103 -50.125 63.8125 C-49.20847656 63.58046875 -48.29195312 63.3484375 -47.34765625 63.109375 C-44.91944501 62.2976321 -44.91944501 62.2976321 -44.1875 60.15625 C-44.00878594 57.16278954 -44.99345993 54.82942723 -46.0625 52.0625 C-46.3925 52.0625 -46.7225 52.0625 -47.0625 52.0625 Z M-42.0625 61.0625 C-42.0625 61.7225 -42.0625 62.3825 -42.0625 63.0625 C-41.4025 63.0625 -40.7425 63.0625 -40.0625 63.0625 C-40.0625 62.4025 -40.0625 61.7425 -40.0625 61.0625 C-40.7225 61.0625 -41.3825 61.0625 -42.0625 61.0625 Z M-50.8125 66.5625 C-52.42125 67.305 -52.42125 67.305 -54.0625 68.0625 C-52.7206656 72.08800319 -50.6397427 72.94535636 -47.0625 75.0625 C-46.4025 75.0625 -45.7425 75.0625 -45.0625 75.0625 C-44.4025 71.7625 -43.7425 68.4625 -43.0625 65.0625 C-46.60315105 65.0625 -47.80833192 65.17596089 -50.8125 66.5625 Z M-59.0625 67.0625 C-58.0625 69.0625 -58.0625 69.0625 -58.0625 69.0625 Z " fill="#2E29B1" transform="translate(169.0625,51.9375)"/>
<path d="M0 0 C0.91974609 0.02707031 1.83949219 0.05414063 2.78710938 0.08203125 C8.04924102 0.3165763 11.84509134 0.90744423 16.4375 3.75 C16.4375 4.41 16.4375 5.07 16.4375 5.75 C15.84324219 5.6778125 15.24898438 5.605625 14.63671875 5.53125 C-3.82121117 3.46442114 -20.49000588 6.09201194 -35.6875 17.375 C-46.47110794 26.41494763 -53.90835951 39.68980586 -55.5625 53.75 C-56.60032375 67.76062066 -53.65380152 79.65164717 -47.0859375 91.88671875 C-45.5625 94.75 -45.5625 94.75 -44.5625 97.75 C-43.0775 98.245 -43.0775 98.245 -41.5625 98.75 C-41.5625 99.41 -41.5625 100.07 -41.5625 100.75 C-40.9025 100.75 -40.2425 100.75 -39.5625 100.75 C-38.37718725 102.21543958 -37.19252599 103.68141416 -36.01220703 105.15087891 C-29.28776114 112.56837984 -18.06807803 116.03587937 -8.5625 117.75 C-7.78390625 117.94207031 -7.0053125 118.13414062 -6.203125 118.33203125 C9.06356709 120.7485047 24.70023376 115.46066096 37 106.625 C39.70277056 104.61287704 40.33457433 104.058777 41.4375 100.75 C42.37078125 100.0075 43.3040625 99.265 44.265625 98.5 C47.64409353 95.80368342 49.41597876 92.64235653 51.1875 88.75 C51.47753906 88.14671875 51.76757812 87.5434375 52.06640625 86.921875 C53.65665875 83.5816186 55.10443317 80.20029063 56.4375 76.75 C57.4275 76.75 58.4175 76.75 59.4375 76.75 C58.55358444 84.66566176 57.21624488 90.37430746 52.4375 96.75 C51.53451172 98.06291016 51.53451172 98.06291016 50.61328125 99.40234375 C40.08919328 114.47515343 27.22852307 124.12197982 9.07421875 128.29296875 C-10.79508441 131.7369813 -26.47118678 126.90899591 -43.5625 116.75 C-43.5625 116.09 -43.5625 115.43 -43.5625 114.75 C-44.15546875 114.47929687 -44.7484375 114.20859375 -45.359375 113.9296875 C-56.54627725 107.93953772 -62.77155709 94.42159435 -66.65234375 82.9765625 C-71.62968778 65.33155749 -68.48875907 47.59910224 -59.95703125 31.68359375 C-56.34693043 25.42761862 -50.59468771 17.09406257 -43.5625 14.75 C-43.5625 14.09 -43.5625 13.43 -43.5625 12.75 C-29.08245517 4.69901691 -16.92412339 -0.78606062 0 0 Z " fill="#020203" transform="translate(138.5625,41.25)"/>
<path d="M0 0 C1.4540625 0.0309375 1.4540625 0.0309375 2.9375 0.0625 C3.4325 3.0325 3.4325 3.0325 3.9375 6.0625 C1.75 7.1875 1.75 7.1875 -1.0625 8.0625 C-2.74827711 7.44575228 -4.41698038 6.77977778 -6.0625 6.0625 C-8.30490782 6.34989925 -8.30490782 6.34989925 -10.0625 7.0625 C-9.134375 7.4028125 -9.134375 7.4028125 -8.1875 7.75 C-5.44276425 9.44527796 -5.12786346 11.09195954 -4.0625 14.0625 C-1.41625716 13.92228195 1.22934578 13.77560224 3.875 13.625 C4.62974609 13.58568359 5.38449219 13.54636719 6.16210938 13.50585938 C9.85694187 13.62211976 9.85694187 13.62211976 12.9375 12.0625 C14.93708364 12.02169217 16.93795254 12.01995644 18.9375 12.0625 C19.5625 14.9375 19.5625 14.9375 19.9375 18.0625 C19.2775 18.7225 18.6175 19.3825 17.9375 20.0625 C16.26087342 19.78355162 14.59497602 19.43888031 12.9375 19.0625 C10.83426466 18.9965265 8.72914276 18.97687755 6.625 19 C5.55636719 19.00902344 4.48773438 19.01804687 3.38671875 19.02734375 C2.57847656 19.03894531 1.77023438 19.05054687 0.9375 19.0625 C1.42476562 20.17238281 1.42476562 20.17238281 1.921875 21.3046875 C2.8540537 23.8359112 3.12513392 25.53694153 3.1875 28.1875 C3.49940295 32.23654942 3.49940295 32.23654942 6.6875 33.9375 C7.76 34.30875 8.8325 34.68 9.9375 35.0625 C14.82638889 36.95138889 14.82638889 36.95138889 16.9375 39.0625 C16.5625 42 16.5625 42 15.9375 45.0625 C15.77654863 48.13922804 15.77654863 48.13922804 17 51.1875 C17.97514572 55.21810233 17.82246623 57.83136124 17.21875 61.8515625 C16.84398257 64.33223777 16.84398257 64.33223777 17.0625 67.9375 C16.9375 71.0625 16.9375 71.0625 15.84375 72.66015625 C13.14179272 74.64786663 10.59514305 74.99922382 7.3125 75.625 C6.06984375 75.86992188 4.8271875 76.11484375 3.546875 76.3671875 C2.35578125 76.59664063 1.1646875 76.82609375 -0.0625 77.0625 C-1.85579546 77.45088752 -3.64780968 77.8453248 -5.4375 78.25 C-7.231875 78.6521875 -7.231875 78.6521875 -9.0625 79.0625 C-9.7225 84.6725 -10.3825 90.2825 -11.0625 96.0625 C-12.0525 96.3925 -13.0425 96.7225 -14.0625 97.0625 C-14.3925 95.4125 -14.7225 93.7625 -15.0625 92.0625 C-19.33331848 92.03308353 -23.60411034 92.01556285 -27.875 92 C-29.07060547 91.99162109 -30.26621094 91.98324219 -31.49804688 91.97460938 C-38.74757559 91.95485589 -45.85788651 92.24456935 -53.0625 93.0625 C-53.7225 92.0725 -54.3825 91.0825 -55.0625 90.0625 C-54.0725 88.4125 -53.0825 86.7625 -52.0625 85.0625 C-51.10960083 85.16099243 -51.10960083 85.16099243 -50.13745117 85.26147461 C-42.55461137 86.00280799 -34.98798559 86.36425204 -27.375 86.625 C-25.58932617 86.68977539 -25.58932617 86.68977539 -23.76757812 86.75585938 C-20.86596966 86.86073679 -17.96429365 86.96290196 -15.0625 87.0625 C-14.753125 85.78375 -14.44375 84.505 -14.125 83.1875 C-13.58644756 80.96148325 -13.0888 79.11510001 -12.0625 77.0625 C-16.6825 77.3925 -21.3025 77.7225 -26.0625 78.0625 C-26.0625 76.0825 -26.0625 74.1025 -26.0625 72.0625 C-24.0710944 71.68116701 -22.06970923 71.34924418 -20.0625 71.0625 C-19.7325 71.3925 -19.4025 71.7225 -19.0625 72.0625 C-16.27955662 72.19186926 -13.53369949 72.25223635 -10.75 72.25 C-9.53497803 72.2509668 -9.53497803 72.2509668 -8.29541016 72.25195312 C-1.74132072 72.19479159 4.52775719 71.47012979 10.9375 70.0625 C10.62965623 67.10361327 10.31644426 64.14546833 10 61.1875 C9.91298828 60.34574219 9.82597656 59.50398438 9.73632812 58.63671875 C9.64931641 57.83105469 9.56230469 57.02539062 9.47265625 56.1953125 C9.394104 55.45168457 9.31555176 54.70805664 9.23461914 53.94189453 C9.02112653 51.97803684 9.02112653 51.97803684 7.9375 50.0625 C7.70673077 44.52403846 7.70673077 44.52403846 8.9375 42.0625 C8.23882812 41.73636719 7.54015625 41.41023438 6.8203125 41.07421875 C5.91023438 40.63722656 5.00015625 40.20023438 4.0625 39.75 C3.15757812 39.32074219 2.25265625 38.89148438 1.3203125 38.44921875 C-1.0625 37.0625 -1.0625 37.0625 -3.0625 34.0625 C-3.26579268 32.23286589 -3.42722196 30.39841632 -3.5625 28.5625 C-4.78663756 20.68211443 -9.03391996 16.03968211 -15.0625 11.0625 C-22.64450293 6.28073602 -30.69157993 5.90788192 -39.296875 7.7578125 C-47.73330448 10.11446768 -55.85680517 13.50264013 -62 19.9375 C-62.680625 20.63875 -63.36125 21.34 -64.0625 22.0625 C-65.0525 22.0625 -66.0425 22.0625 -67.0625 22.0625 C-63.49941878 13.64067166 -56.4557813 8.48947658 -48.328125 4.83203125 C-45.91929037 3.8678012 -43.49675691 2.95981587 -41.0625 2.0625 C-40.4025 1.7325 -39.7425 1.4025 -39.0625 1.0625 C-36.44781537 0.98792789 -33.85999427 0.97116024 -31.24609375 1 C-30.47443375 1.00378662 -29.70277374 1.00757324 -28.9077301 1.01147461 C-26.43843072 1.02371362 -23.96924675 1.04234876 -21.5 1.0625 C-18.24870122 1.08897689 -14.99745915 1.10902538 -11.74609375 1.125 C-10.99194687 1.13329834 -10.23779999 1.14159668 -9.46080017 1.15014648 C-7.66115 1.15870984 -5.8613805 1.11581991 -4.0625 1.0625 C-3.0625 0.0625 -3.0625 0.0625 0 0 Z " fill="#040403" transform="translate(169.0625,51.9375)"/>
<path d="M0 0 C1.4540625 0.0309375 1.4540625 0.0309375 2.9375 0.0625 C3.4325 3.0325 3.4325 3.0325 3.9375 6.0625 C1.75 7.1875 1.75 7.1875 -1.0625 8.0625 C-2.74827711 7.44575228 -4.41698038 6.77977778 -6.0625 6.0625 C-8.30490782 6.34989925 -8.30490782 6.34989925 -10.0625 7.0625 C-9.134375 7.4028125 -9.134375 7.4028125 -8.1875 7.75 C-5.44276425 9.44527796 -5.12786346 11.09195954 -4.0625 14.0625 C-1.41625716 13.92228195 1.22934578 13.77560224 3.875 13.625 C4.62974609 13.58568359 5.38449219 13.54636719 6.16210938 13.50585938 C9.85694187 13.62211976 9.85694187 13.62211976 12.9375 12.0625 C14.93708364 12.02169217 16.93795254 12.01995644 18.9375 12.0625 C19.5625 14.9375 19.5625 14.9375 19.9375 18.0625 C19.2775 18.7225 18.6175 19.3825 17.9375 20.0625 C16.26087342 19.78355162 14.59497602 19.43888031 12.9375 19.0625 C10.83426466 18.9965265 8.72914276 18.97687755 6.625 19 C5.55636719 19.00902344 4.48773438 19.01804687 3.38671875 19.02734375 C2.57847656 19.03894531 1.77023438 19.05054687 0.9375 19.0625 C1.25460938 19.76761719 1.57171875 20.47273438 1.8984375 21.19921875 C2.98288286 24.18755879 3.3339359 26.71319658 3.5625 29.875 C3.67464844 31.33873047 3.67464844 31.33873047 3.7890625 32.83203125 C3.83804688 33.56808594 3.88703125 34.30414063 3.9375 35.0625 C2.9475 35.0625 1.9575 35.0625 0.9375 35.0625 C0.9375 35.7225 0.9375 36.3825 0.9375 37.0625 C0.2775 37.0625 -0.3825 37.0625 -1.0625 37.0625 C-3.26645881 33.75656179 -3.27820724 32.42075895 -3.5625 28.5625 C-4.78663756 20.68211443 -9.03391996 16.03968211 -15.0625 11.0625 C-22.64450293 6.28073602 -30.69157993 5.90788192 -39.296875 7.7578125 C-47.73330448 10.11446768 -55.85680517 13.50264013 -62 19.9375 C-62.680625 20.63875 -63.36125 21.34 -64.0625 22.0625 C-65.0525 22.0625 -66.0425 22.0625 -67.0625 22.0625 C-63.49941878 13.64067166 -56.4557813 8.48947658 -48.328125 4.83203125 C-45.91929037 3.8678012 -43.49675691 2.95981587 -41.0625 2.0625 C-40.4025 1.7325 -39.7425 1.4025 -39.0625 1.0625 C-36.44781537 0.98792789 -33.85999427 0.97116024 -31.24609375 1 C-30.47443375 1.00378662 -29.70277374 1.00757324 -28.9077301 1.01147461 C-26.43843072 1.02371362 -23.96924675 1.04234876 -21.5 1.0625 C-18.24870122 1.08897689 -14.99745915 1.10902538 -11.74609375 1.125 C-10.99194687 1.13329834 -10.23779999 1.14159668 -9.46080017 1.15014648 C-7.66115 1.15870984 -5.8613805 1.11581991 -4.0625 1.0625 C-3.0625 0.0625 -3.0625 0.0625 0 0 Z " fill="#080809" transform="translate(169.0625,51.9375)"/>
<path d="M0 0 C0.91974609 0.02707031 1.83949219 0.05414063 2.78710938 0.08203125 C8.04924102 0.3165763 11.84509134 0.90744423 16.4375 3.75 C16.4375 4.41 16.4375 5.07 16.4375 5.75 C15.84324219 5.6778125 15.24898438 5.605625 14.63671875 5.53125 C-3.82121117 3.46442114 -20.49000588 6.09201194 -35.6875 17.375 C-43.55958054 23.9474446 -48.97457364 32.19006463 -52.5625 41.75 C-53.5525 41.42 -54.5425 41.09 -55.5625 40.75 C-53.53707808 35.26944656 -50.71806798 30.89777534 -47.28125 26.1796875 C-44.8948718 22.8062165 -42.87279134 19.68087401 -41.5625 15.75 C-54.39021515 25.74606526 -62.88374924 39.73968161 -64.96875 55.8984375 C-66.04708193 67.00035484 -64.68942067 77.04915049 -61.24609375 87.62890625 C-60.59325646 89.6545671 -60.05529091 91.68027816 -59.5625 93.75 C-60.5525 93.75 -61.5425 93.75 -62.5625 93.75 C-63.38148266 91.54388434 -64.19277543 89.3354166 -65 87.125 C-65.45246094 85.89523438 -65.90492187 84.66546875 -66.37109375 83.3984375 C-71.81151547 66.73826081 -68.70302817 49.03898627 -61.0402832 33.7043457 C-57.32248158 26.76897406 -51.30285237 17.33011746 -43.5625 14.75 C-43.5625 14.09 -43.5625 13.43 -43.5625 12.75 C-29.08245517 4.69901691 -16.92412339 -0.78606062 0 0 Z " fill="#090808" transform="translate(138.5625,41.25)"/>
<path d="M0 0 C1.32 0.66 2.64 1.32 4 2 C4 2.66 4 3.32 4 4 C3.34 4 2.68 4 2 4 C1.34 9.61 0.68 15.22 0 21 C-0.99 21.33 -1.98 21.66 -3 22 C-3.33 20.35 -3.66 18.7 -4 17 C-8.27081848 16.97058353 -12.54161034 16.95306285 -16.8125 16.9375 C-18.00810547 16.92912109 -19.20371094 16.92074219 -20.43554688 16.91210938 C-27.68507559 16.89235589 -34.79538651 17.18206935 -42 18 C-42.66 17.01 -43.32 16.02 -44 15 C-43.01 13.35 -42.02 11.7 -41 10 C-40.36473389 10.06566162 -39.72946777 10.13132324 -39.07495117 10.19897461 C-31.49211137 10.94030799 -23.92548559 11.30175204 -16.3125 11.5625 C-14.52682617 11.62727539 -14.52682617 11.62727539 -12.70507812 11.69335938 C-9.80346966 11.79823679 -6.90179365 11.90040196 -4 12 C-1.26630451 6.16021607 -1.26630451 6.16021607 0 0 Z " fill="#060507" transform="translate(158,127)"/>
<path d="M0 0 C0.33 0.99 0.66 1.98 1 3 C1.9590625 2.7215625 1.9590625 2.7215625 2.9375 2.4375 C3.618125 2.293125 4.29875 2.14875 5 2 C5.33 2.33 5.66 2.66 6 3 C7.85287502 3.07226502 9.70833878 3.0838122 11.5625 3.0625 C12.57441406 3.05347656 13.58632812 3.04445313 14.62890625 3.03515625 C15.41136719 3.02355469 16.19382812 3.01195313 17 3 C16.01 4.485 16.01 4.485 15 6 C12.03 5.67 9.06 5.34 6 5 C6.99 8.3 7.98 11.6 9 15 C8.34 15 7.68 15 7 15 C7 15.99 7 16.98 7 18 C7.66 18.33 8.32 18.66 9 19 C8.67 19.33 8.34 19.66 8 20 C8.99 20.33 9.98 20.66 11 21 C11.33 19.68 11.66 18.36 12 17 C12.33 17.99 12.66 18.98 13 20 C14.62948064 21.22445284 14.62948064 21.22445284 16.5625 22.1875 C18.2640625 23.0846875 18.2640625 23.0846875 20 24 C20 24.99 20 25.98 20 27 C21.98 27.66 23.96 28.32 26 29 C25.67 29.99 25.34 30.98 25 32 C22.625 31.75 22.625 31.75 20 31 C19.69320312 30.36964844 19.38640625 29.73929688 19.0703125 29.08984375 C17.21993304 25.47687656 13.655066 24.41464591 10 23 C6.68416549 22.2216223 6.68416549 22.2216223 4 22 C3.67 20.35 3.34 18.7 3 17 C3.66 17 4.32 17 5 17 C4.34 13.37 3.68 9.74 3 6 C2.01 5.67 1.02 5.34 0 5 C-0.33 4.01 -0.66 3.02 -1 2 C-0.67 1.34 -0.34 0.68 0 0 Z " fill="#27259C" transform="translate(87,92)"/>
<path d="M0 0 C1.32 0.66 2.64 1.32 4 2 C4 2.66 4 3.32 4 4 C3.34 4 2.68 4 2 4 C1.76216797 5.04800781 1.76216797 5.04800781 1.51953125 6.1171875 C1.28621094 7.02726563 1.05289063 7.93734375 0.8125 8.875 C0.59207031 9.77992188 0.37164062 10.68484375 0.14453125 11.6171875 C-1 14 -1 14 -3.16479492 15.13012695 C-8.65727749 16.81528285 -14.42594966 16.32684806 -20.125 16.3125 C-21.41277344 16.32861328 -22.70054687 16.34472656 -24.02734375 16.36132812 C-25.25839844 16.36197266 -26.48945313 16.36261719 -27.7578125 16.36328125 C-29.44608154 16.36775269 -29.44608154 16.36775269 -31.16845703 16.37231445 C-34 16 -34 16 -35.89013672 14.47729492 C-36.2563916 13.9897876 -36.62264648 13.50228027 -37 13 C-26.01480208 11.72635386 -15.04098375 11.89914784 -4 12 C-1.26630451 6.16021607 -1.26630451 6.16021607 0 0 Z " fill="#121010" transform="translate(158,127)"/>
<path d="M0 0 C0.33 0 0.66 0 1 0 C1.99 4.62 2.98 9.24 4 14 C4.66 14 5.32 14 6 14 C6.226875 13.443125 6.45375 12.88625 6.6875 12.3125 C8.35896766 9.36753316 10.55276352 7.31843456 13 5 C13 5.66 13 6.32 13 7 C14.65 7 16.3 7 18 7 C19.31626692 10.61973402 20 13.09567131 20 17 C19.34 17 18.68 17 18 17 C17.67 17.66 17.34 18.32 17 19 C16.34 15.7 15.68 12.4 15 9 C12.35247996 11.57784846 10.05567935 13.91648098 8 17 C9.32 17.66 10.64 18.32 12 19 C10.02 19 8.04 19 6 19 C6 17.68 6 16.36 6 15 C4.35 15.66 2.7 16.32 1 17 C-1.20927172 11.02197063 -0.93213141 6.26039609 0 0 Z " fill="#3936B0" transform="translate(103,79)"/>
<path d="M0 0 C-1.32 0.99 -2.64 1.98 -4 3 C-3.67 3.66 -3.34 4.32 -3 5 C-3.94101563 5.43570313 -4.88203125 5.87140625 -5.8515625 6.3203125 C-12.63269561 9.53787706 -17.91229233 12.36226988 -23 18 C-23.99 18 -24.98 18 -26 18 C-22.50101408 9.72966963 -15.63345895 4.65330149 -7.7109375 0.921875 C-2.40277778 -1.20138889 -2.40277778 -1.20138889 0 0 Z " fill="#101015" transform="translate(128,56)"/>
<path d="M0 0 C0 1.32 0 2.64 0 4 C3.96 4 7.92 4 12 4 C12 3.34 12 2.68 12 2 C13.98 2 15.96 2 18 2 C17.67 3.65 17.34 5.3 17 7 C16.34 7 15.68 7 15 7 C15 8.65 15 10.3 15 12 C12 11 12 11 10.71484375 8.96875 C9.09794959 6.68614347 9.09794959 6.68614347 6.00390625 6.53125 C4.30041016 6.51578125 4.30041016 6.51578125 2.5625 6.5 C-3.47189612 6.44507944 -3.47189612 6.44507944 -6.41015625 3.96875 C-6.93480469 3.3190625 -7.45945312 2.669375 -8 2 C-5.09399739 0.74335022 -3.20395416 0 0 0 Z M-3 2 C-2 4 -2 4 -2 4 Z M13 5 C13 5.66 13 6.32 13 7 C13.66 7 14.32 7 15 7 C15 6.34 15 5.68 15 5 C14.34 5 13.68 5 13 5 Z " fill="#2E26B8" transform="translate(109,94)"/>
<path d="M0 0 C0.33 0 0.66 0 1 0 C2.00846437 4.79020574 2.58033208 7.67993022 0.0625 12 C-0.618125 12.99 -1.29875 13.98 -2 15 C-2.66 15 -3.32 15 -4 15 C-4 15.66 -4 16.32 -4 17 C-3.195625 17.12375 -2.39125 17.2475 -1.5625 17.375 C-0.2940625 17.684375 -0.2940625 17.684375 1 18 C1.33 18.66 1.66 19.32 2 20 C-1.375 20.125 -1.375 20.125 -5 20 C-5.66 19.34 -6.32 18.68 -7 18 C-7.99 18.33 -8.98 18.66 -10 19 C-10 17.68 -10 16.36 -10 15 C-9.39542969 14.74863281 -8.79085937 14.49726562 -8.16796875 14.23828125 C-4.51593728 12.15234616 -2.86850634 8.67379254 -1 5 C-0.14833113 2.19259873 -0.14833113 2.19259873 0 0 Z " fill="#2D29AE" transform="translate(98,76)"/>
<path d="M0 0 C0.66 0 1.32 0 2 0 C0.78153632 2.4937469 -0.50716799 4.92711602 -1.83984375 7.36328125 C-6.23490657 15.55474385 -9.05285671 22.87474563 -10.4296875 32.0859375 C-11 35 -11 35 -13 37 C-12.79567504 23.40310298 -10.0716162 10.0716162 0 0 Z " fill="#121212" transform="translate(84,66)"/>
<path d="M0 0 C5.28 0 10.56 0 16 0 C16 0.66 16 1.32 16 2 C15.360625 2.309375 14.72125 2.61875 14.0625 2.9375 C12.06389179 3.8345163 12.06389179 3.8345163 11 5 C5.69378797 6.36902269 0.49585235 7.28925539 -5 7 C-5.33 6.34 -5.66 5.68 -6 5 C-5.195625 4.54625 -4.39125 4.0925 -3.5625 3.625 C-0.91143428 2.25274335 -0.91143428 2.25274335 0 0 Z " fill="#121113" transform="translate(129,53)"/>
<path d="M0 0 C4.62 0 9.24 0 14 0 C13.01 0.495 13.01 0.495 12 1 C12 1.66 12 2.32 12 3 C8.37 3 4.74 3 1 3 C1.56739868 7.12973628 1.56739868 7.12973628 3 11 C2.01 11 1.02 11 0 11 C-0.33 12.32 -0.66 13.64 -1 15 C-1.8723412 12.00519083 -2.10829766 9.36424089 -2.0625 6.25 C-2.05347656 5.45078125 -2.04445313 4.6515625 -2.03515625 3.828125 C-2.02355469 3.22484375 -2.01195313 2.6215625 -2 2 C-1.34 2 -0.68 2 0 2 C0 1.34 0 0.68 0 0 Z " fill="#3231A6" transform="translate(126,99)"/>
<path d="M0 0 C0.66 0.33 1.32 0.66 2 1 C1.41992188 1.65484375 0.83984375 2.3096875 0.2421875 2.984375 C-5.41981262 9.59938504 -9.44682135 16.01579856 -13 24 C-13.99 23.67 -14.98 23.34 -16 23 C-13.23142701 15.5085672 -7.33541437 3.66770719 0 0 Z " fill="#0C0D10" transform="translate(99,59)"/>
<path d="M0 0 C0.99 0 1.98 0 3 0 C2.74357696 1.91864771 2.46926564 3.83490994 2.1875 5.75 C2.03667969 6.81734375 1.88585937 7.8846875 1.73046875 8.984375 C0.98679593 12.05451094 0.07234528 13.66080478 -2 16 C-4 15 -4 15 -5 12 C-4.00390625 9.08203125 -4.00390625 9.08203125 -2.5625 5.8125 C-2.08941406 4.72582031 -1.61632812 3.63914062 -1.12890625 2.51953125 C-0.75636719 1.68808594 -0.38382813 0.85664062 0 0 Z " fill="#020201" transform="translate(195,118)"/>
<path d="M0 0 C0.33 0 0.66 0 1 0 C0.93941406 0.6084375 0.87882812 1.216875 0.81640625 1.84375 C0.38918692 6.31312147 -0.00203102 10.77293358 -0.21875 15.2578125 C-0.25556885 15.98033203 -0.2923877 16.70285156 -0.33032227 17.44726562 C-0.40137118 18.89090189 -0.46445314 20.33495383 -0.51928711 21.77929688 C-0.60769993 23.52465499 -0.7951962 25.26444615 -1 27 C-1.66 27.33 -2.32 27.66 -3 28 C-3.37506717 8.68404084 -3.37506717 8.68404084 -1 1 C-0.67 0.67 -0.34 0.34 0 0 Z " fill="#0E0D17" transform="translate(83,84)"/>
<path d="M0 0 C0 0.66 0 1.32 0 2 C0.99 2 1.98 2 3 2 C3 2.66 3 3.32 3 4 C1.68 4 0.36 4 -1 4 C-1 4.66 -1 5.32 -1 6 C-3.75 6.375 -3.75 6.375 -7 6 C-9.375 3 -9.375 3 -11 0 C-6.98195309 -0.84098656 -3.98196457 -1.05404945 0 0 Z M-5 2 C-5 2.66 -5 3.32 -5 4 C-4.34 4 -3.68 4 -3 4 C-3 3.34 -3 2.68 -3 2 C-3.66 2 -4.32 2 -5 2 Z " fill="#2D26BD" transform="translate(123,80)"/>
<path d="M0 0 C5.64217386 4.4389437 10.66722776 9.00168327 13 16 C13.03954234 18.33299825 13.04401732 20.66708189 13 23 C10.79162511 20.79162511 10.61139462 19.87789262 9.875 16.9375 C8.29474506 11.81615022 5.37686859 8.69782464 1.64453125 4.9453125 C0 3 0 3 0 0 Z " fill="#100F14" transform="translate(155,61)"/>
<path d="M0 0 C13.81776765 -0.55353075 13.81776765 -0.55353075 19 3 C19 3.66 19 4.32 19 5 C12.73 4.34 6.46 3.68 0 3 C0 2.01 0 1.02 0 0 Z " fill="#050504" transform="translate(136,42)"/>
<path d="M0 0 C-0.33 0.66 -0.66 1.32 -1 2 C-4.26936494 2.25485425 -7.54016741 2.47442831 -10.8125 2.6875 C-11.74126953 2.76033203 -12.67003906 2.83316406 -13.62695312 2.90820312 C-14.9659668 2.99038086 -14.9659668 2.99038086 -16.33203125 3.07421875 C-17.15421143 3.13182373 -17.9763916 3.18942871 -18.82348633 3.2487793 C-21.52106974 2.94044082 -22.32607931 2.07168402 -24 0 C-15.83325905 -0.94120241 -8.16674095 -0.94120241 0 0 Z " fill="#141418" transform="translate(145,140)"/>
<path d="M0 0 C1.4540625 0.0309375 1.4540625 0.0309375 2.9375 0.0625 C3.5625 2.9375 3.5625 2.9375 3.9375 6.0625 C3.2775 6.7225 2.6175 7.3825 1.9375 8.0625 C-0.0625 8.0625 -0.0625 8.0625 -2.0625 7.0625 C-3.3125 4 -3.3125 4 -4.0625 1.0625 C-3.0625 0.0625 -3.0625 0.0625 0 0 Z " fill="#0B0B0B" transform="translate(185.0625,63.9375)"/>
<path d="M0 0 C0.99 0 1.98 0 3 0 C4.64800856 3.66447432 5.33580973 6.81203466 5.625 10.8125 C5.69976562 11.78832031 5.77453125 12.76414062 5.8515625 13.76953125 C5.90054688 14.50558594 5.94953125 15.24164063 6 16 C3.5899832 14.21192302 2.17219525 12.82238077 1.546875 9.8359375 C1.39355238 8.26693599 1.26866619 6.69483006 1.17578125 5.12109375 C1.06864604 2.81127837 1.06864604 2.81127837 0 0 Z " fill="#0F0F10" transform="translate(167,71)"/>
<path d="M0 0 C6.27 0 12.54 0 19 0 C19 0.66 19 1.32 19 2 C16.20865148 2.19425873 13.41716313 2.38069517 10.625 2.5625 C9.8309375 2.61857422 9.036875 2.67464844 8.21875 2.73242188 C2.2265625 3.11328125 2.2265625 3.11328125 0 2 C0 1.34 0 0.68 0 0 Z " fill="#0B0B0B" transform="translate(126,168)"/>
<path d="M0 0 C2.625 0.75 2.625 0.75 5 2 C5.33 2.66 5.66 3.32 6 4 C5.34 4 4.68 4 4 4 C3.87625 4.61875 3.7525 5.2375 3.625 5.875 C3 8 3 8 1 10 C1 9.01 1 8.02 1 7 C0.01 6.67 -0.98 6.34 -2 6 C-1.67 5.01 -1.34 4.02 -1 3 C-1.66 2.67 -2.32 2.34 -3 2 C-2.01 1.34 -1.02 0.68 0 0 Z M1 2 C2 4 2 4 2 4 Z " fill="#2A27B6" transform="translate(132,65)"/>
<path d="M0 0 C1.32 0.33 2.64 0.66 4 1 C3.09515208 2.15518918 2.1755794 3.29885406 1.25 4.4375 C0.73953125 5.07558594 0.2290625 5.71367188 -0.296875 6.37109375 C-2.19667629 8.18810554 -3.43586908 8.60423197 -6 9 C-4.47291037 5.56404834 -2.40072955 2.88087546 0 0 Z " fill="#12132C" transform="translate(108,65)"/>
<path d="M0 0 C0.99 0.33 1.98 0.66 3 1 C2.45276317 4.37462715 1.9451 6.08235 0 9 C-0.99 9 -1.98 9 -3 9 C-3.33 9.66 -3.66 10.32 -4 11 C-3.21681311 7.08406554 -1.60820142 3.63593365 0 0 Z " fill="#110F0D" transform="translate(189,132)"/>
<path d="M0 0 C0.66 0.99 1.32 1.98 2 3 C-0.31 5.64 -2.62 8.28 -5 11 C-5.99 10.34 -6.98 9.68 -8 9 C-5.50174717 5.78796065 -2.9297008 2.82506863 0 0 Z " fill="#3B37AB" transform="translate(133,86)"/>
<path d="M0 0 C0 1.32 0 2.64 0 4 C0.99 4.33 1.98 4.66 3 5 C2 6 2 6 -0.8125 6.3125 C-4 6 -4 6 -6.375 4 C-6.91125 3.34 -7.4475 2.68 -8 2 C-5.09399739 0.74335022 -3.20395416 0 0 0 Z M-3 2 C-2 4 -2 4 -2 4 Z " fill="#261CC0" transform="translate(109,94)"/>
<path d="M0 0 C0.33 0.99 0.66 1.98 1 3 C1.9590625 2.7215625 1.9590625 2.7215625 2.9375 2.4375 C3.618125 2.293125 4.29875 2.14875 5 2 C5.33 2.33 5.66 2.66 6 3 C7.85287502 3.07226502 9.70833878 3.0838122 11.5625 3.0625 C12.57441406 3.05347656 13.58632812 3.04445313 14.62890625 3.03515625 C15.41136719 3.02355469 16.19382812 3.01195313 17 3 C16.01 4.485 16.01 4.485 15 6 C11.7421875 6.29296875 11.7421875 6.29296875 7.875 6.1875 C5.95300781 6.14689453 5.95300781 6.14689453 3.9921875 6.10546875 C3.00476563 6.07066406 2.01734375 6.03585938 1 6 C-0.0625 4.125 -0.0625 4.125 -1 2 C-0.67 1.34 -0.34 0.68 0 0 Z " fill="#28249A" transform="translate(87,92)"/>
<path d="M0 0 C-0.33 0.99 -0.66 1.98 -1 3 C-5.455 3.495 -5.455 3.495 -10 4 C-10.33 3.34 -10.66 2.68 -11 2 C-6.97107804 -0.96244261 -4.82799816 -1.2350693 0 0 Z " fill="#09080F" transform="translate(134,56)"/>
<path d="M0 0 C0.33 0.66 0.66 1.32 1 2 C1.66 2 2.32 2 3 2 C3.99 5.63 4.98 9.26 6 13 C5.01 13.495 5.01 13.495 4 14 C3.32471777 12.42032193 2.66010306 10.83608097 2 9.25 C1.62875 8.36828125 1.2575 7.4865625 0.875 6.578125 C0 4 0 4 0 0 Z " fill="#0A0B0E" transform="translate(81,114)"/>
<path d="M0 0 C1.32 0.66 2.64 1.32 4 2 C4 2.66 4 3.32 4 4 C3.34 4 2.68 4 2 4 C1.7525 4.928125 1.505 5.85625 1.25 6.8125 C-0.06454245 10.16458325 -0.97963384 11.1877803 -4 13 C-3.4294891 9.00642372 -2.07130449 6.42215525 0 3 C0 2.01 0 1.02 0 0 Z " fill="#0B0A0B" transform="translate(158,127)"/>
<path d="M0 0 C1.32 0.66 2.64 1.32 4 2 C1.03 4.31 -1.94 6.62 -5 9 C-5.66 8.01 -6.32 7.02 -7 6 C-4.69 4.02 -2.38 2.04 0 0 Z " fill="#2E2398" transform="translate(138,103)"/>
<path d="M0 0 C2.31 0.66 4.62 1.32 7 2 C7 4.64 7 7.28 7 10 C6.01 9.67 5.02 9.34 4 9 C4 7.35 4 5.7 4 4 C3.01 4 2.02 4 1 4 C0.67 2.68 0.34 1.36 0 0 Z " fill="#3735B9" transform="translate(102,98)"/>
<path d="M0 0 C2.8326134 1.4163067 3.01707833 3.14497293 4.125 6.0625 C4.47820312 6.98160156 4.83140625 7.90070313 5.1953125 8.84765625 C5.46085938 9.55792969 5.72640625 10.26820312 6 11 C4.68 11.33 3.36 11.66 2 12 C0.00214565 7.8794254 -0.17835515 4.54805635 0 0 Z " fill="#3D35AF" transform="translate(139,86)"/>
<path d="M0 0 C0.66 0 1.32 0 2 0 C2.309375 1.11375 2.61875 2.2275 2.9375 3.375 C3.82326483 6.7945155 3.82326483 6.7945155 5 9 C4.01 9 3.02 9 2 9 C1.67 10.32 1.34 11.64 1 13 C0.1276588 10.00519083 -0.10829766 7.36424089 -0.0625 4.25 C-0.05347656 3.45078125 -0.04445313 2.6515625 -0.03515625 1.828125 C-0.02355469 1.22484375 -0.01195313 0.6215625 0 0 Z " fill="#352DB2" transform="translate(124,101)"/>
<path d="M0 0 C2.0859375 3.6796875 2.0859375 3.6796875 1.3125 6.5625 C0.08281865 8.84619393 -1.05096104 10.31673908 -3 12 C-3.88336837 9.5332355 -4.1312406 8.36140628 -3.22265625 5.859375 C-2.83980469 5.16328125 -2.45695313 4.4671875 -2.0625 3.75 C-1.68222656 3.04359375 -1.30195313 2.3371875 -0.91015625 1.609375 C-0.60980469 1.07828125 -0.30945313 0.5471875 0 0 Z " fill="#3832AB" transform="translate(150,86)"/>
<path d="M0 0 C3.6875 0.3125 3.6875 0.3125 6.125 2.3125 C6.8984375 3.3025 6.8984375 3.3025 7.6875 4.3125 C5.70182292 4.01953125 3.71614583 3.7265625 1.73046875 3.43359375 C-0.5150342 3.17345201 -0.5150342 3.17345201 -3.3125 4.3125 C-3.6425 3.3225 -3.9725 2.3325 -4.3125 1.3125 C-3.3125 0.3125 -3.3125 0.3125 0 0 Z " fill="#161615" transform="translate(169.3125,65.6875)"/>
<path d="M0 0 C0.66 0.33 1.32 0.66 2 1 C1.49701212 5.40114397 -0.08772731 7.71195019 -3 11 C-3 10.34 -3 9.68 -3 9 C-3.66 8.67 -4.32 8.34 -5 8 C-3.35 5.36 -1.7 2.72 0 0 Z " fill="#3530A7" transform="translate(119,102)"/>
<path d="M0 0 C2 3.75 2 3.75 2 6 C2.66 6 3.32 6 4 6 C4.33 5.34 4.66 4.68 5 4 C5.66 4 6.32 4 7 4 C6.67 5.65 6.34 7.3 6 9 C7.32 9.66 8.64 10.32 10 11 C8.02 11 6.04 11 4 11 C4 9.68 4 8.36 4 7 C3.01 7 2.02 7 1 7 C0.67 4.69 0.34 2.38 0 0 Z " fill="#302EAA" transform="translate(105,87)"/>
<path d="M0 0 C1.9375 0.6875 1.9375 0.6875 4 2 C4.9375 4.4375 4.9375 4.4375 5 7 C3.5625 8.8125 3.5625 8.8125 2 10 C0.768606 7.53721199 0.92840804 5.7204945 1 3 C0.01 2.67 -0.98 2.34 -2 2 C-1.34 1.34 -0.68 0.68 0 0 Z " fill="#0A0A0A" transform="translate(181,88)"/>
<path d="M0 0 C0.33 0 0.66 0 1 0 C2.25 7.625 2.25 7.625 0 11 C-2.125 11.6875 -2.125 11.6875 -4 12 C-2.66666667 8 -1.33333333 4 0 0 Z " fill="#3535A2" transform="translate(98,76)"/>
<path d="M0 0 C0 0.99 0 1.98 0 3 C-1.98 3.99 -3.96 4.98 -6 6 C-6.99 5.01 -7.98 4.02 -9 3 C-5.55930376 0.70620251 -4.27709699 0 0 0 Z " fill="#0E0D26" transform="translate(118,61)"/>
<path d="M0 0 C1.85776765 3.13498292 2.20140476 5.37471432 2 9 C2.66 9.33 3.32 9.66 4 10 C2.35 9.67 0.7 9.34 -1 9 C-1.33 6.36 -1.66 3.72 -2 1 C-1.34 0.67 -0.68 0.34 0 0 Z " fill="#2C2AA6" transform="translate(109,106)"/>
<path d="M0 0 C1.485 0.99 1.485 0.99 3 2 C3.6875 5.625 3.6875 5.625 4 9 C3.01 9.33 2.02 9.66 1 10 C-0.60725635 6.78548731 -0.05748185 3.56387464 0 0 Z " fill="#3536B1" transform="translate(134,72)"/>
<path d="M0 0 C2 2 4 4 6 6 C5.01 6.66 4.02 7.32 3 8 C2.4225 7.690625 1.845 7.38125 1.25 7.0625 C-0.84294184 6.07416636 -2.74535275 5.4831387 -5 5 C-3.35 4.67 -1.7 4.34 0 4 C0 2.68 0 1.36 0 0 Z " fill="#26209D" transform="translate(98,109)"/>
<path d="M0 0 C2.31 0.33 4.62 0.66 7 1 C7 1.66 7 2.32 7 3 C3.01803543 4.05404945 0.01804691 3.84098656 -4 3 C-2.68 2.67 -1.36 2.34 0 2 C0 1.34 0 0.68 0 0 Z " fill="#302AA1" transform="translate(126,82)"/>
<path d="M0 0 C0.66 0.33 1.32 0.66 2 1 C2.625 4.0625 2.625 4.0625 3 7 C2.01 7.33 1.02 7.66 0 8 C-1.4606285 5.35261084 -2 4.10551666 -2 1 C-1.34 0.67 -0.68 0.34 0 0 Z " fill="#302EA5" transform="translate(151,74)"/>
<path d="M0 0 C3.81684226 1.55500981 6.19195732 4.03595495 9 7 C4.94519369 7 3.15167025 5.45129908 0 3 C0 2.01 0 1.02 0 0 Z " fill="#09090A" transform="translate(98,144)"/>
<path d="M0 0 C1.98 0.99 1.98 0.99 4 2 C4 4.31 4 6.62 4 9 C3.34 8.34 2.68 7.68 2 7 C2 6.01 2 5.02 2 4 C1.34 4 0.68 4 0 4 C0 2.68 0 1.36 0 0 Z " fill="#3232AF" transform="translate(90,97)"/>
<path d="M0 0 C1.65 0 3.3 0 5 0 C5.33 0.66 5.66 1.32 6 2 C3.09399739 3.25664978 1.20395416 4 -2 4 C-1.34 2.68 -0.68 1.36 0 0 Z " fill="#36309E" transform="translate(116,65)"/>
<path d="M0 0 C2.31 0.33 4.62 0.66 7 1 C7 2.65 7 4.3 7 6 C6.1028125 5.2884375 6.1028125 5.2884375 5.1875 4.5625 C2.99617076 2.83534256 2.99617076 2.83534256 0 2 C0 1.34 0 0.68 0 0 Z " fill="#281DC1" transform="translate(107,117)"/>
<path d="M0 0 C0.99 0.33 1.98 0.66 3 1 C2.67 2.65 2.34 4.3 2 6 C0.68 5.67 -0.64 5.34 -2 5 C-1.34 3.35 -0.68 1.7 0 0 Z " fill="#302AB2" transform="translate(155,82)"/>
<path d="M0 0 C0.66 1.32 1.32 2.64 2 4 C-1.3 3.34 -4.6 2.68 -8 2 C-4 0 -4 0 0 0 Z " fill="#2E2DA2" transform="translate(112,79)"/>
<path d="M0 0 C0.66 0 1.32 0 2 0 C2 2.31 2 4.62 2 7 C1.01 7.33 0.02 7.66 -1 8 C-1.125 2.25 -1.125 2.25 0 0 Z " fill="#3733AF" transform="translate(118,72)"/>
<path d="M0 0 C3.3 0.33 6.6 0.66 10 1 C9.34 1.66 8.68 2.32 8 3 C5.8359375 2.9765625 5.8359375 2.9765625 3.375 2.625 C2.55773437 2.51414062 1.74046875 2.40328125 0.8984375 2.2890625 C0.27195312 2.19367188 -0.35453125 2.09828125 -1 2 C-0.67 1.34 -0.34 0.68 0 0 Z " fill="#29239A" transform="translate(100,74)"/>
<path d="M0 0 C0.66 0 1.32 0 2 0 C2 1.65 2 3.3 2 5 C0.35 5.66 -1.3 6.32 -3 7 C-1.125 1.125 -1.125 1.125 0 0 Z " fill="#3735BA" transform="translate(129,68)"/>
<path d="M0 0 C1.98 0 3.96 0 6 0 C6.33 0.99 6.66 1.98 7 3 C4.36 3 1.72 3 -1 3 C-0.67 2.01 -0.34 1.02 0 0 Z " fill="#2E29A4" transform="translate(142,83)"/>
<path d="M0 0 C2.4375 0.6875 2.4375 0.6875 5 2 C5.8125 4.625 5.8125 4.625 6 7 C3.69 5.35 1.38 3.7 -1 2 C-0.67 1.34 -0.34 0.68 0 0 Z " fill="#0F0F0F" transform="translate(158,59)"/>
<path d="M0 0 C3 1 3 1 4.6875 4.0625 C5.120625 5.031875 5.55375 6.00125 6 7 C5.01 7 4.02 7 3 7 C0 2.77777778 0 2.77777778 0 0 Z " fill="#09090A" transform="translate(87,130)"/>
<path d="M0 0 C1.98 0.495 1.98 0.495 4 1 C4 1.99 4 2.98 4 4 C4.66 4 5.32 4 6 4 C5.67 4.99 5.34 5.98 5 7 C5 6.34 5 5.68 5 5 C2.525 4.01 2.525 4.01 0 3 C0 2.01 0 1.02 0 0 Z " fill="#302DAA" transform="translate(103,115)"/>
<path d="M0 0 C1.66611905 -0.042721 3.33382885 -0.04063832 5 0 C6 1 6 1 6.0625 3.5625 C6.041875 4.366875 6.02125 5.17125 6 6 C5.67 5.34 5.34 4.68 5 4 C3.35636866 3.27840576 1.68949614 2.60648579 0 2 C0 1.34 0 0.68 0 0 Z " fill="#332C98" transform="translate(147,67)"/>
<path d="M0 0 C0.99 0 1.98 0 3 0 C3.33 1.98 3.66 3.96 4 6 C2.68 5.67 1.36 5.34 0 5 C0 3.35 0 1.7 0 0 Z " fill="#010101" transform="translate(183,66)"/>
<path d="M0 0 C0.99 0 1.98 0 3 0 C3 1.32 3 2.64 3 4 C3.66 4.33 4.32 4.66 5 5 C3.68 5.33 2.36 5.66 1 6 C0.34 4.35 -0.32 2.7 -1 1 C-0.67 0.67 -0.34 0.34 0 0 Z " fill="#020202" transform="translate(167,54)"/>
<path d="M0 0 C0.66 0.33 1.32 0.66 2 1 C0.1875 3 0.1875 3 -2 5 C-2.99 5 -3.98 5 -5 5 C-4.1875 3.0625 -4.1875 3.0625 -3 1 C-2.01 0.67 -1.02 0.34 0 0 Z " fill="#131343" transform="translate(107,69)"/>
<path d="M0 0 C-4.1795645 2.78637633 -6.14668677 1.79562512 -11 1 C-7.2297564 -1.56376565 -4.32597804 -0.83191885 0 0 Z " fill="#161614" transform="translate(139,43)"/>
</svg>
